<?xml version="1.0" standalone="no"?>
<!DOCTYPE svg PUBLIC "-//W3C//DTD SVG 20010904//EN"
 "http://www.w3.org/TR/2001/REC-SVG-20010904/DTD/svg10.dtd">
<svg version="1.0" xmlns="http://www.w3.org/2000/svg"
 width="200.000000pt" height="200.000000pt" viewBox="0 0 200.000000 200.000000"
 preserveAspectRatio="xMidYMid meet">

<g transform="translate(0.000000,200.000000) scale(0.100000,-0.100000)"
fill="#000000" stroke="none">
<path d="M333 1356 c-94 -30 -179 -111 -210 -199 -28 -84 -23 -172 15 -250 37
-75 83 -119 162 -156 l55 -26 605 0 605 0 55 26 c79 37 125 81 162 156 26 53
32 78 32 132 1 131 -67 241 -182 298 l-57 28 -600 2 c-474 2 -609 -1 -642 -11z
m507 -261 c0 -205 -8 -225 -98 -250 -62 -18 -142 47 -142 116 0 105 100 163
188 109 l32 -20 0 105 c0 63 4 105 10 105 6 0 10 -62 10 -165z m-360 -20 c42
-22 63 -68 57 -122 -9 -81 -83 -127 -161 -101 -52 18 -78 53 -78 112 -2 99 94
157 182 111z m620 0 c32 -16 60 -61 60 -95 0 -19 -6 -20 -111 -20 -110 0 -110
0 -104 -22 17 -59 85 -84 145 -53 35 18 47 5 19 -21 -28 -26 -110 -24 -147 3
-72 53 -55 186 28 216 29 11 81 7 110 -8z m238 -2 c2 -9 -7 -13 -26 -13 -52 0
-62 -20 -62 -122 0 -67 -3 -89 -12 -85 -9 3 -13 31 -13 96 0 90 1 94 29 117
30 26 76 30 84 7z m253 -21 c29 -33 43 -89 37 -156 -3 -41 -28 -64 -28 -27 l0
22 -31 -23 c-73 -54 -174 -10 -186 80 -12 87 44 146 131 139 40 -4 55 -10 77
-35z"/>
<path d="M693 1063 c-35 -7 -63 -50 -63 -97 1 -44 13 -66 47 -84 51 -28 107
-9 129 43 33 79 -28 153 -113 138z"/>
<path d="M349 1034 c-36 -38 -34 -107 4 -140 30 -26 71 -31 110 -13 51 23 64
113 22 154 -35 36 -102 35 -136 -1z"/>
<path d="M972 1037 c-12 -13 -22 -31 -22 -41 0 -15 10 -16 87 -14 97 3 109 13
69 53 -34 34 -103 35 -134 2z"/>
<path d="M1435 1035 c-39 -38 -31 -117 14 -152 28 -21 87 -15 118 11 38 33 40
102 4 140 -34 36 -101 37 -136 1z"/>
</g>
</svg>
