<?xml version="1.0" standalone="no"?>
<!DOCTYPE svg PUBLIC "-//W3C//DTD SVG 20010904//EN"
 "http://www.w3.org/TR/2001/REC-SVG-20010904/DTD/svg10.dtd">
<svg version="1.0" xmlns="http://www.w3.org/2000/svg"
 width="500.000000pt" height="500.000000pt" viewBox="0 0 500.000000 500.000000"
 preserveAspectRatio="xMidYMid meet">

<g transform="translate(0.000000,500.000000) scale(0.100000,-0.100000)"
fill="#000000" stroke="none">
<path d="M1940 2760 c0 -179 -2 -183 -60 -124 -67 68 -114 84 -255 84 -155 0
-218 -23 -293 -104 -74 -80 -106 -174 -99 -291 6 -106 13 -128 60 -204 29 -46
56 -74 98 -101 82 -53 127 -63 266 -58 101 3 125 7 166 28 91 46 155 126 184
230 8 31 12 143 13 373 l0 327 -40 0 -40 0 0 -160z m-220 -106 c64 -13 134
-67 171 -131 33 -57 34 -60 34 -179 0 -107 -3 -125 -24 -167 -25 -50 -87 -112
-135 -137 -20 -11 -60 -15 -135 -15 -125 0 -160 13 -231 84 -58 58 -80 123
-80 235 0 107 21 167 82 229 83 84 182 109 318 81z"/>
<path d="M560 2724 c-80 -15 -149 -52 -205 -108 -44 -43 -55 -64 -78 -136 -29
-91 -34 -168 -16 -235 33 -122 121 -226 224 -264 65 -24 233 -29 313 -9 156
39 252 178 252 368 0 185 -90 317 -251 369 -39 12 -199 22 -239 15z m157 -65
c111 -26 165 -67 215 -161 19 -37 22 -58 22 -158 0 -105 -2 -119 -26 -165 -14
-27 -41 -65 -58 -82 -118 -119 -357 -104 -461 29 -45 58 -59 110 -59 217 0
115 16 165 76 231 43 48 79 68 149 85 66 17 86 17 142 4z"/>
<path d="M2484 2697 c-96 -41 -143 -85 -180 -165 -97 -212 -22 -462 164 -544
140 -62 403 -29 472 59 26 34 25 41 -7 54 -22 8 -34 4 -84 -29 -78 -53 -158
-70 -251 -54 -86 15 -118 31 -172 87 -48 51 -79 126 -74 182 l3 38 225 2 c124
1 280 2 348 3 l122 0 0 49 c0 87 -40 178 -109 248 -72 73 -135 93 -292 92 -93
-1 -123 -5 -165 -22z m233 -38 c136 -31 227 -116 235 -219 l3 -35 -55 -6 c-30
-3 -164 -7 -298 -8 -273 -3 -266 -5 -241 71 31 96 122 173 228 194 76 15 74
15 128 3z"/>
<path d="M3445 2708 c-80 -27 -124 -64 -152 -126 -13 -30 -17 -82 -21 -290 -2
-139 -1 -269 2 -288 6 -31 10 -34 41 -34 l35 0 0 273 c1 260 2 274 23 317 32
64 81 90 175 90 78 0 93 10 72 49 -9 18 -19 21 -78 20 -37 -1 -80 -6 -97 -11z"/>
<path d="M3965 2686 c-100 -48 -160 -114 -198 -216 -20 -53 -23 -203 -6 -247
36 -91 68 -139 121 -184 81 -67 135 -83 267 -77 128 6 178 24 243 86 26 25 51
42 55 38 4 -4 10 -31 13 -59 5 -52 5 -52 40 -52 l35 0 9 168 c13 245 -16 377
-103 470 -74 81 -148 107 -296 107 -104 -1 -114 -3 -180 -34z m261 -31 c71
-18 139 -58 161 -93 10 -15 21 -29 24 -32 4 -3 14 -25 23 -50 17 -49 23 -245
7 -254 -5 -3 -12 -17 -15 -32 -20 -79 -101 -150 -205 -179 -60 -17 -66 -17
-139 0 -137 31 -214 114 -241 259 -24 133 28 270 128 337 82 55 163 69 257 44z"/>
</g>
</svg>
